<?xml version="1.0" encoding="UTF-8"?>
<svg width="873px" height="873px" viewBox="0 0 873 873" version="1.1" xmlns="http://www.w3.org/2000/svg" xmlns:xlink="http://www.w3.org/1999/xlink">
    <!-- Generator: Sketch 58 (84663) - https://sketch.com -->
    <title>icon_database3d</title>
    <desc>Created with Sketch.</desc>
    <defs>
        <linearGradient x1="50%" y1="0%" x2="50%" y2="100%" id="linearGradient-1">
            <stop stop-color="#6BAEEE" offset="0%"></stop>
            <stop stop-color="#3976D9" offset="100%"></stop>
        </linearGradient>
    </defs>
    <g id="icon_database3d" stroke="none" stroke-width="1" fill="none" fill-rule="evenodd">
        <g id="icons8-database-(1)-copy" transform="translate(196.000000, 162.000000)" fill="url(#linearGradient-1)" fill-rule="nonzero">
            <path d="M241.022414,0 C96.857255,0 0,53.3170573 0,103.102621 C0,152.910563 96.857255,206.25 241.022414,206.25 C385.174125,206.25 482,152.910563 482,103.102621 C482,53.3170573 385.174125,0 241.022414,0 Z M0,155.940755 L0,219.431559 C0,268.402507 96.857255,320.833333 241.022414,320.833333 C385.174125,320.833333 482,268.402507 482,219.431559 L482,155.940755 C439.860863,198.954264 349.024125,229.166667 241.022414,229.166667 C132.998289,229.166667 42.1525859,198.945313 0,155.940755 Z M0,273.97054 L0,334.529622 C0,383.491618 96.857255,435.416667 241.022414,435.416667 C385.174125,435.416667 482,383.47819 482,334.529622 L482,273.97054 C439.860863,316.96167 349.024125,343.75 241.022414,343.75 C132.998289,343.75 42.1525859,316.96167 0,273.97054 Z M0,389.068603 L0,448.598226 C0,497.560221 96.857255,550 241.022414,550 C385.174125,550 482,497.560221 482,448.598226 L482,389.068603 C439.860863,432.073161 349.024125,458.333333 241.022414,458.333333 C132.998289,458.333333 42.1525859,432.073161 0,389.068603 Z" id="Shape"></path>
        </g>
    </g>
</svg>